<svg xmlns="http://www.w3.org/2000/svg" id="Capa_1" height="512" viewBox="0 0 512 512" width="512"><path d="m256 64.644-20.016 83.801 276.016-20.016v-63.785z" fill="#ff415b"></path><path d="m256 64.644h-256v63.785l256 20.016z" fill="#ff8859"></path><path d="m256 447.356h256v-318.927h-256l-20.016 144.571z" fill="#e1ebf0"></path><path d="m0 128.429h256v318.927h-256z" fill="#fff5f5"></path><path d="m256 177.214h191.356v30h-191.356z" fill="#00aa95"></path><path d="m194.083 177.214h31.893v30h-31.893z" fill="#00dd80"></path><path d="m256 241h191.356v30h-191.356z" fill="#00aa95"></path><path d="m194.083 241h31.893v30h-31.893z" fill="#00dd80"></path><path d="m256 304.786h191.356v30h-191.356z" fill="#00aa95"></path><path d="m194.083 304.786h31.893v30h-31.893z" fill="#00dd80"></path><path d="m256 368.571h191.356v30h-191.356z" fill="#00aa95"></path><path d="m194.083 368.571h31.893v30h-31.893z" fill="#00dd80"></path><path d="m95.678 271c-25.856 0-46.893-21.036-46.893-46.893s21.036-46.893 46.893-46.893 46.894 21.036 46.894 46.893c-.001 25.857-21.037 46.893-46.894 46.893z" fill="#ff415b"></path><path d="m95.678 207.214c-9.314 0-16.893 7.578-16.893 16.893 0 9.314 7.578 16.893 16.893 16.893s16.894-7.578 16.894-16.893c-.001-9.315-7.579-16.893-16.894-16.893z" fill="#fff5f5"></path><path d="m95.678 398.571c-25.856 0-46.893-21.036-46.893-46.893s21.036-46.893 46.893-46.893 46.894 21.036 46.894 46.893-21.037 46.893-46.894 46.893z" fill="#005fe1"></path><path d="m95.678 334.786c-9.314 0-16.893 7.578-16.893 16.893s7.578 16.893 16.893 16.893 16.894-7.578 16.894-16.893-7.579-16.893-16.894-16.893z" fill="#fff5f5"></path></svg>