<svg xmlns="http://www.w3.org/2000/svg" height="480pt" viewBox="0 0 480 480" width="480pt"><path d="m144 480v-64h-88v-104h-56l56-120c0-57.441406 46.558594-104 104-104h40c57.441406 0 104 46.558594 104 104v104l-48 96v88" fill="#ceb2aa"></path><path d="m280 296v-104c0-57.441406-46.558594-104-104-104h-16c-57.441406 0-104 46.558594-104 104l-56 120h56v104h88v64h88v-88zm0 0" fill="#e5c7bd"></path><path d="m384 240v-80h96v-160h-94.054688c-6.371093 0-12.472656 2.527344-16.96875 7.03125l-8.976562 8.96875-8.96875-8.96875c-4.503906-4.503906-10.605469-7.03125-16.976562-7.03125h-94.054688v160h96v80" fill="#ed6863"></path><path d="m256 384h-96v-160h-48c-13.257812 0-24-10.742188-24-24s10.742188-24 24-24c0-13.257812 10.742188-24 24-24 2.808594 0 5.496094.480469 8 1.367188v-1.367188c0-17.671875 14.328125-32 32-32 16.566406 0 30.199219 12.59375 31.832031 28.726562l-.039062-.328124c4.757812-2.796876 10.296875-4.398438 16.207031-4.398438 17.671875 0 32 14.328125 32 32v4.28125c9.566406 5.535156 16 15.871094 16 27.71875 0 17.671875-14.328125 32-32 32h-48v96h64" fill="#afe26c"></path><path d="m480 384v-48h-18.894531c-2.707031-11.414062-7.265625-22.097656-13.394531-31.710938l16.289062-16.289062-32-32-16.289062 16.289062c-9.613282-6.128906-20.296876-10.6875-31.710938-13.394531v-18.894531h-48v18.894531c-11.414062 2.707031-22.097656 7.265625-31.710938 13.394531l-16.289062-16.289062-32 32 16.289062 16.289062c-6.128906 9.613282-10.6875 20.296876-13.394531 31.710938h-18.894531v48h18.894531c2.707031 11.414062 7.265625 22.097656 13.394531 31.710938l-16.289062 16.289062 32 32 16.289062-16.289062c9.613282 6.128906 20.296876 10.6875 31.710938 13.394531v18.894531h48v-18.894531c11.414062-2.707031 22.097656-7.265625 31.710938-13.394531l16.289062 16.289062 32-32-16.289062-16.289062c6.128906-9.613282 10.6875-20.296876 13.394531-31.710938zm0 0" fill="#b3b6c2"></path><path d="m432 360c0 39.765625-32.234375 72-72 72s-72-32.234375-72-72 32.234375-72 72-72 72 32.234375 72 72zm0 0" fill="#d8d8e3"></path><path d="m400 360c0 22.089844-17.910156 40-40 40s-40-17.910156-40-40 17.910156-40 40-40 40 17.910156 40 40zm0 0" fill="#eef2f9"></path><path d="m263.753906 176h.246094c0-22.054688-17.945312-40-40-40-3.761719 0-7.320312.6875-10.769531 1.664062-5.789063-14.976562-20.246094-25.664062-37.230469-25.664062-19.34375 0-35.511719 13.808594-39.199219 32.078125-.273437-.007813-.527343-.078125-.800781-.078125-15.183594 0-27.871094 10.65625-31.136719 24.863281-14.207031 3.265625-24.863281 15.953125-24.863281 31.136719 0 17.648438 14.351562 32 32 32h40v24h16v-32c0-4.414062-3.585938-8-8-8h-48c-8.824219 0-16-7.175781-16-16s7.175781-16 16-16 16 7.175781 16 16h16c0-14.359375-9.574219-26.398438-22.625-30.441406 2.480469-5.613282 8.097656-9.558594 14.625-9.558594 8.824219 0 16 7.175781 16 16h16c0-11.65625-6.328125-21.769531-15.664062-27.359375 1.65625-11.640625 11.585937-20.640625 23.664062-20.640625 10.832031 0 19.902344 7.257812 22.878906 17.128906-9 7.34375-14.878906 18.375-14.878906 30.871094 0 22.054688 17.945312 40 40 40v-16c-13.230469 0-24-10.769531-24-24s10.769531-24 24-24c10.664062 0 19.625 7.039062 22.734375 16.679688-2.199219-.375-4.429687-.679688-6.734375-.679688h-8v16h8c13.230469 0 24 10.769531 24 24s-10.769531 24-24 24h-48c-4.414062 0-8 3.585938-8 8v16h16v-8h40c22.054688 0 40-17.945312 40-40 0-13.128906-6.449219-24.703125-16.246094-32zm0 0" fill="#7ec95f"></path><g fill="#d8d8e3"><path d="m264 24h48v16h-48zm0 0"></path><path d="m264 56h48v16h-48zm0 0"></path><path d="m264 88h72v16h-72zm0 0"></path><path d="m264 120h72v16h-72zm0 0"></path><path d="m384 24h72v16h-72zm0 0"></path><path d="m384 56h72v16h-72zm0 0"></path><path d="m408 88h48v16h-48zm0 0"></path><path d="m408 120h48v16h-48zm0 0"></path><path d="m352 24h16v136h-16zm0 0"></path></g></svg>